<svg xmlns="http://www.w3.org/2000/svg" width="604" height="218" fill="none"><path fill="#F7951D" d="M100.744 114.112q.84 2.352 1.176 5.376.504 2.856.504 5.88t-.504 6.048q-.336 2.856-1.008 5.04-2.688 9.408-10.752 15.792-8.064 6.216-18.48 9.072-10.248 2.856-21.336 2.016-10.92-.84-19.488-5.544-5.376-3.024-9.24-7.392t-6.552-9.744q-1.008-1.848-1.344-4.2-.168-2.52.504-4.704.672-2.352 2.184-4.032 1.512-1.848 4.2-2.52 1.68-.336 3.696-.336 2.184 0 4.2.672a9.6 9.6 0 0 1 3.696 1.848q1.68 1.176 2.688 3.36 1.848 3.528 5.208 6.552 3.528 2.856 7.392 4.704 5.544 1.848 11.088 1.512 5.712-.336 10.248-2.52 4.704-2.184 7.56-5.88 2.856-3.864 2.856-8.736 0-4.032-1.176-6.552-1.176-2.688-3.36-4.368-2.016-1.848-5.04-3.024-2.856-1.176-6.384-2.016a66 66 0 0 0-8.232-1.176 228 228 0 0 1-8.232-.84 97 97 0 0 1-8.232-1.344q-4.032-.84-7.896-2.52-7.728-3.192-11.76-9.744T14.056 80.68q-.672-7.56 1.848-14.952 2.52-7.56 8.064-12.936 5.376-4.872 12.768-6.888 7.56-2.184 16.632-2.52 5.04-.168 10.08.336 5.208.504 9.912 1.68 4.872 1.176 8.904 3.024 4.2 1.848 7.224 4.368 2.184 1.68 4.368 4.536a20.5 20.5 0 0 1 3.36 5.88q1.176 3.024.672 5.88-.336 2.856-3.528 4.872-2.688 1.68-5.208 1.512a13.6 13.6 0 0 1-4.536-1.512 36 36 0 0 1-4.2-3.024 241 241 0 0 0-3.696-3.024q-4.536-3.36-11.256-4.536t-12.6-.504q-3.696.504-6.888 1.68t-5.544 3.192q-2.184 2.016-3.528 5.04-1.176 2.856-.84 6.552.168 2.688 1.512 4.536a13 13 0 0 0 3.528 3.024q2.184 1.176 4.704 1.848t5.04 1.008q7.56 1.008 15.12 1.512t14.784 3.36q7.392 2.856 12.6 7.728t7.392 11.76M162.971 87.4q4.872 2.016 8.904 5.88 4.032 3.696 6.888 8.568 3.024 4.872 4.536 10.584a38.6 38.6 0 0 1 1.68 11.256q.168 8.568-4.032 16.128-4.032 7.56-13.272 11.592a81.4 81.4 0 0 1-14.616 4.368q-7.392 1.344-15.456 1.848v30.744q0 1.008-.336 1.848a8.6 8.6 0 0 0-.168 1.68 19.6 19.6 0 0 1-.84 3.024q-.336 1.344-1.008 2.856a26 26 0 0 1-1.344 1.848q-.672.84-1.512 1.68-4.032 2.016-8.4.84-2.688-.168-4.368-1.68-1.512-1.512-2.184-3.192t-1.176-3.864l-.336-1.68V94.624l.336-2.352q.168-2.016 1.008-4.032 1.512-4.2 6.216-5.712t10.584-1.344q4.032.168 8.232.84a82 82 0 0 1 8.232 1.68q4.032.84 7.224 1.848t5.208 1.848m.336 36.288q.672-4.704-1.176-7.896a13.26 13.26 0 0 0-4.872-5.376q-3.192-2.184-7.392-3.36a51.7 51.7 0 0 0-8.064-1.68q-.504-.168-1.68-.168h-2.352v10.416q.168 4.872 0 10.584v11.256a71 71 0 0 0 8.064-.84q4.368-.672 8.064-2.184t6.216-4.032q2.688-2.52 3.192-6.72m93.439 16.296a25 25 0 0 1 4.032-.672q2.184-.168 3.864.504 1.848.672 3.024 2.352 1.176 1.512 1.176 4.368 0 2.016-1.008 3.864a14.7 14.7 0 0 1-2.52 3.36 19.7 19.7 0 0 1-3.36 2.688 33 33 0 0 1-3.528 1.68q-4.872 2.184-11.256 3.36-6.216 1.176-12.936.84a54.5 54.5 0 0 1-17.472-3.528q-8.232-3.36-12.936-10.92-4.368-7.392-5.208-16.464t.84-17.136q1.848-9.744 6.216-15.792 4.536-6.216 10.752-9.912 7.56-4.368 16.968-4.536t17.976 3.696a35.1 35.1 0 0 1 10.248 6.888q4.536 4.2 6.888 10.248.672 1.512 1.008 3.696a30 30 0 0 1 .672 4.704 33 33 0 0 1 0 4.704q-.168 2.352-.84 4.2-1.008 3.024-2.52 4.704t-3.864 2.52-5.712 1.176a509 509 0 0 1-7.728.336 182 182 0 0 1-7.56.168h-7.224q-3.696-.168-7.728-.168a983 983 0 0 0-8.736-.336q-.504 3.36.84 5.88 1.512 2.352 4.032 4.032 2.52 1.512 5.712 2.352t6.216 1.008q5.712.336 10.92-.84a268 268 0 0 0 10.752-3.024m-7.224-32.592q-3.192-3.696-6.72-5.376-2.688-1.176-5.712-1.008-2.856 0-5.544.84-4.872 1.176-8.232 5.04-.336.336-1.176 1.68-.84 1.176-1.68 2.52a14.8 14.8 0 0 0-1.008 2.52q-.336 1.176.336 1.176h32.928q-.168-2.352-.84-3.864-.672-1.68-2.352-3.528m96.741-9.072a10 10 0 0 1 1.344 5.04 8.84 8.84 0 0 1-1.176 5.04q-1.512 3.024-4.368 4.2-2.688 1.008-6.048.168a7.3 7.3 0 0 1-2.688-1.176 49 49 0 0 0-2.52-1.68q-1.176-1.008-2.856-1.848-1.512-.84-4.032-1.176t-5.544 0q-2.856.336-5.208 1.344-3.696 1.848-5.88 5.712-2.184 3.696-2.856 8.064-.672 4.2.168 8.568 1.008 4.368 3.696 7.392 2.016 2.352 5.208 3.864 3.36 1.512 6.384 1.848a24.4 24.4 0 0 0 5.712 0 44.5 44.5 0 0 0 5.544-1.344q2.016-.84 4.536-2.184 2.52-1.512 4.872-1.848 3.024 0 4.704 1.68 1.68 1.512 2.352 3.864.672 2.184.168 4.704-.336 2.52-1.848 4.368-2.016 2.52-5.712 4.872-3.696 2.184-7.056 3.192-4.032 1.344-9.072 1.512-4.872.168-9.24-.336a70 70 0 0 1-4.2-.84 46 46 0 0 1-4.2-1.176q-7.392-2.688-12.432-7.56-4.872-5.04-7.56-11.256-2.52-6.216-2.856-13.272t1.68-13.944q1.848-6.552 4.536-11.088 2.856-4.536 6.552-7.392a30.4 30.4 0 0 1 8.568-4.704q4.704-1.848 10.416-3.192 5.88-1.176 12.432 0t11.76 4.368q4.032 2.184 6.72 6.216m81.756-9.408q1.344 3.192.168 7.056-1.008 3.864-3.864 5.04-1.512.672-4.032 1.176-2.52.336-5.544.672a98 98 0 0 1-5.712.504 85 85 0 0 1-4.872.168q.168 5.04.336 10.416.168 5.208.336 10.248t.168 9.744q0 4.536-.168 8.232v5.88q0 3.192-.504 6.216-.336 3.024-1.176 5.376-.84 2.184-2.52 2.856-5.208 2.184-9.576 1.176-4.2-.84-6.048-3.528-1.344-2.184-2.016-5.04a57 57 0 0 1-1.008-6.048 115 115 0 0 1-.168-6.048q.168-3.024.168-5.208.168-7.056.168-15.96.168-9.072.168-18.144h-7.728q-3.024-.168-6.216-.504a73 73 0 0 1-5.712-1.176q-2.688-.84-3.864-2.352-1.848-2.184-2.352-4.704-.336-2.52.336-4.704.84-2.352 2.52-4.032 1.68-1.848 3.864-2.352 3.024-.84 8.567-.84 5.545-.168 10.417 0a32 32 0 0 1-.168-3.192q0-1.68-.168-3.192-.168-2.016-.168-5.04 0-3.192.336-6.216.504-3.192 1.512-5.88 1.008-2.856 2.856-4.368 2.52-2.016 5.04-2.184 2.688-.336 4.872.672a9.34 9.34 0 0 1 3.864 3.024 10.4 10.4 0 0 1 2.352 4.2q.504 2.016.84 4.872.336 2.688.336 5.712.168 3.024.168 6.048v5.544h1.68q2.52 0 5.88-.168a42 42 0 0 1 6.552.168q3.36.336 6.048 1.68 2.688 1.176 4.032 4.2m14.4 14.616v-4.536q0-2.688.168-5.376.168-2.856.504-5.376.504-2.688 1.344-4.704 1.344-3.024 4.2-4.032 2.856-1.176 6.216-1.008 3.528 0 5.544 1.176t3.024 3.192q1.008 1.848 1.176 4.368.336 2.352.336 5.04a12.6 12.6 0 0 1 4.032-4.368q2.688-1.68 5.376-2.688t4.872-1.344q2.184-.504 2.52-.504 4.2-.336 7.56-.168 3.528.168 7.728 1.512 2.688 1.008 5.544 2.856a22.2 22.2 0 0 1 5.04 4.032q2.184 2.352 2.856 5.208.84 2.688-.672 5.712-2.352 4.2-5.208 4.2-2.856-.168-6.216-1.008-1.848-.336-4.368-1.512t-4.368-1.512q-5.712-.84-10.08.84t-7.56 4.032a32.2 32.2 0 0 0-6.384 6.552v24.192q0 4.536-.168 9.408 0 4.872-1.344 8.904-1.176 3.864-4.2 6.384-2.856 2.352-8.4 2.016-3.024-.168-5.376-2.856-2.352-2.856-2.856-5.544-.336-2.52-.504-6.048a1794 1794 0 0 1-.336-7.392v-39.648m96.317-16.464a47 47 0 0 1 11.592-3.864q6.048-1.176 11.928-.504a38 38 0 0 1 11.592 3.192q5.712 2.52 10.416 7.056 3.864 3.864 6.72 9.408 2.856 5.376 4.2 10.584 2.856 9.24.84 18.648t-6.888 17.472q-2.352 3.696-5.88 6.72a33.3 33.3 0 0 1-7.224 4.704q-5.04 2.352-10.92 3.192-5.88 1.008-11.424.504-10.08-.504-17.808-5.04-7.56-4.536-12.264-11.592-4.536-7.056-6.048-15.96-1.344-9.072 1.176-18.48 2.688-10.08 7.728-16.296 5.208-6.384 12.264-9.744m5.04 22.512q-2.52 2.352-3.864 5.88a27.3 27.3 0 0 0-1.68 7.392q-.336 3.696.504 7.56 1.008 3.696 3.024 6.72 1.68 2.52 6.048 4.2a31.4 31.4 0 0 0 9.072 2.016q5.376.336 9.408-2.856a21 21 0 0 0 6.048-8.232q2.184-4.872 2.016-10.584t-3.024-10.416q-2.016-3.36-5.712-4.872-3.528-1.68-7.56-1.68-3.864-.168-7.728 1.176-3.864 1.176-6.552 3.696"/><path fill="#F7F8F9" d="M93.744 106.112q.84 2.352 1.176 5.376.504 2.856.504 5.88t-.504 6.048q-.336 2.856-1.008 5.04-2.688 9.408-10.752 15.792-8.064 6.216-18.48 9.072-10.248 2.856-21.336 2.016-10.92-.84-19.488-5.544-5.376-3.024-9.24-7.392t-6.552-9.744q-1.008-1.848-1.344-4.2-.168-2.52.504-4.704.672-2.352 2.184-4.032 1.512-1.848 4.2-2.52 1.68-.336 3.696-.336 2.184 0 4.2.672a9.6 9.6 0 0 1 3.696 1.848q1.68 1.176 2.688 3.36 1.848 3.528 5.208 6.552 3.528 2.856 7.392 4.704 5.544 1.848 11.088 1.512 5.712-.336 10.248-2.52 4.704-2.184 7.56-5.88 2.856-3.864 2.856-8.736 0-4.032-1.176-6.552-1.176-2.688-3.36-4.368-2.016-1.848-5.04-3.024-2.856-1.176-6.384-2.016a66 66 0 0 0-8.232-1.176 228 228 0 0 1-8.232-.84 97 97 0 0 1-8.232-1.344q-4.032-.84-7.896-2.52-7.728-3.192-11.76-9.744T7.056 72.68q-.672-7.56 1.848-14.952 2.52-7.56 8.064-12.936 5.376-4.872 12.768-6.888 7.56-2.184 16.632-2.52 5.04-.168 10.08.336 5.208.504 9.912 1.68 4.872 1.176 8.904 3.024 4.2 1.848 7.224 4.368 2.184 1.68 4.368 4.536a20.5 20.5 0 0 1 3.36 5.88q1.176 3.024.672 5.88-.336 2.856-3.528 4.872-2.688 1.68-5.208 1.512a13.6 13.6 0 0 1-4.536-1.512 36 36 0 0 1-4.2-3.024 241 241 0 0 0-3.696-3.024q-4.536-3.36-11.256-4.536t-12.6-.504q-3.696.504-6.888 1.68t-5.544 3.192q-2.184 2.016-3.528 5.04-1.176 2.856-.84 6.552.168 2.688 1.512 4.536a13 13 0 0 0 3.528 3.024q2.184 1.176 4.704 1.848t5.04 1.008q7.56 1.008 15.12 1.512t14.784 3.36q7.392 2.856 12.6 7.728t7.392 11.76M155.971 79.4q4.872 2.016 8.904 5.88 4.032 3.696 6.888 8.568 3.024 4.872 4.536 10.584a38.6 38.6 0 0 1 1.68 11.256q.168 8.568-4.032 16.128-4.032 7.56-13.272 11.592a81.4 81.4 0 0 1-14.616 4.368q-7.392 1.344-15.456 1.848v30.744q0 1.008-.336 1.848a8.6 8.6 0 0 0-.168 1.68 19.6 19.6 0 0 1-.84 3.024q-.336 1.344-1.008 2.856a26 26 0 0 1-1.344 1.848q-.672.84-1.512 1.68-4.032 2.016-8.4.84-2.688-.168-4.368-1.68-1.512-1.512-2.184-3.192t-1.176-3.864l-.336-1.68V86.624l.336-2.352q.168-2.016 1.008-4.032 1.512-4.2 6.216-5.712t10.584-1.344q4.032.168 8.232.84a82 82 0 0 1 8.232 1.68q4.032.84 7.224 1.848t5.208 1.848m.336 36.288q.672-4.704-1.176-7.896a13.26 13.26 0 0 0-4.872-5.376q-3.192-2.184-7.392-3.36a51.7 51.7 0 0 0-8.064-1.68q-.504-.168-1.68-.168h-2.352v10.416q.168 4.872 0 10.584v11.256a71 71 0 0 0 8.064-.84q4.368-.672 8.064-2.184t6.216-4.032q2.688-2.52 3.192-6.72m93.439 16.296a25 25 0 0 1 4.032-.672q2.184-.168 3.864.504 1.848.672 3.024 2.352 1.176 1.512 1.176 4.368 0 2.016-1.008 3.864a14.7 14.7 0 0 1-2.52 3.36 19.7 19.7 0 0 1-3.36 2.688 33 33 0 0 1-3.528 1.68q-4.872 2.184-11.256 3.36-6.216 1.176-12.936.84a54.5 54.5 0 0 1-17.472-3.528q-8.232-3.36-12.936-10.92-4.368-7.392-5.208-16.464t.84-17.136q1.848-9.744 6.216-15.792 4.536-6.216 10.752-9.912 7.56-4.368 16.968-4.536t17.976 3.696a35.1 35.1 0 0 1 10.248 6.888q4.536 4.2 6.888 10.248.672 1.512 1.008 3.696a30 30 0 0 1 .672 4.704 33 33 0 0 1 0 4.704q-.168 2.352-.84 4.2-1.008 3.024-2.52 4.704t-3.864 2.52-5.712 1.176a509 509 0 0 1-7.728.336 182 182 0 0 1-7.56.168h-7.224q-3.696-.168-7.728-.168a983 983 0 0 0-8.736-.336q-.504 3.36.84 5.88 1.512 2.352 4.032 4.032 2.52 1.512 5.712 2.352t6.216 1.008q5.712.336 10.92-.84a268 268 0 0 0 10.752-3.024m-7.224-32.592q-3.192-3.696-6.72-5.376-2.688-1.176-5.712-1.008-2.856 0-5.544.84-4.872 1.176-8.232 5.04-.336.336-1.176 1.68-.84 1.176-1.68 2.52a14.8 14.8 0 0 0-1.008 2.52q-.336 1.176.336 1.176h32.928q-.168-2.352-.84-3.864-.672-1.68-2.352-3.528m96.741-9.072a10 10 0 0 1 1.344 5.04 8.84 8.84 0 0 1-1.176 5.04q-1.512 3.024-4.368 4.2-2.688 1.008-6.048.168a7.3 7.3 0 0 1-2.688-1.176 49 49 0 0 0-2.52-1.68q-1.176-1.008-2.856-1.848-1.512-.84-4.032-1.176t-5.544 0q-2.856.336-5.208 1.344-3.696 1.848-5.88 5.712-2.184 3.696-2.856 8.064-.672 4.2.168 8.568 1.008 4.368 3.696 7.392 2.016 2.352 5.208 3.864 3.36 1.512 6.384 1.848a24.4 24.4 0 0 0 5.712 0 44.5 44.5 0 0 0 5.544-1.344q2.016-.84 4.536-2.184 2.52-1.512 4.872-1.848 3.024 0 4.704 1.68 1.68 1.512 2.352 3.864.672 2.184.168 4.704-.336 2.52-1.848 4.368-2.016 2.52-5.712 4.872-3.696 2.184-7.056 3.192-4.032 1.344-9.072 1.512-4.872.168-9.24-.336a70 70 0 0 1-4.2-.84 46 46 0 0 1-4.2-1.176q-7.392-2.688-12.432-7.56-4.872-5.04-7.56-11.256-2.52-6.216-2.856-13.272t1.68-13.944q1.848-6.552 4.536-11.088 2.856-4.536 6.552-7.392a30.4 30.4 0 0 1 8.568-4.704q4.704-1.848 10.416-3.192 5.88-1.176 12.432 0t11.76 4.368q4.032 2.184 6.72 6.216m81.756-9.408q1.344 3.192.168 7.056-1.008 3.864-3.864 5.04-1.512.672-4.032 1.176-2.52.336-5.544.672a98 98 0 0 1-5.712.504 85 85 0 0 1-4.872.168q.168 5.04.336 10.416.168 5.208.336 10.248t.168 9.744q0 4.536-.168 8.232v5.88q0 3.192-.504 6.216-.336 3.024-1.176 5.376-.84 2.184-2.52 2.856-5.208 2.184-9.576 1.176-4.2-.84-6.048-3.528-1.344-2.184-2.016-5.04a57 57 0 0 1-1.008-6.048 115 115 0 0 1-.168-6.048q.168-3.024.168-5.208.168-7.056.168-15.96.168-9.072.168-18.144h-7.728q-3.024-.168-6.216-.504a73 73 0 0 1-5.712-1.176q-2.688-.84-3.864-2.352-1.848-2.184-2.352-4.704-.336-2.52.336-4.704.84-2.352 2.52-4.032 1.68-1.848 3.864-2.352 3.024-.84 8.567-.84 5.545-.168 10.417 0a32 32 0 0 1-.168-3.192q0-1.68-.168-3.192-.168-2.016-.168-5.04 0-3.192.336-6.216.504-3.192 1.512-5.88 1.008-2.856 2.856-4.368 2.52-2.016 5.04-2.184 2.688-.336 4.872.672a9.34 9.34 0 0 1 3.864 3.024 10.4 10.4 0 0 1 2.352 4.2q.504 2.016.84 4.872.336 2.688.336 5.712.168 3.024.168 6.048v5.544h1.68q2.52 0 5.88-.168a42 42 0 0 1 6.552.168q3.36.336 6.048 1.68 2.688 1.176 4.032 4.2m14.4 14.616v-4.536q0-2.688.168-5.376.168-2.856.504-5.376.504-2.688 1.344-4.704 1.344-3.024 4.2-4.032 2.856-1.176 6.216-1.008 3.528 0 5.544 1.176t3.024 3.192q1.008 1.848 1.176 4.368.336 2.352.336 5.04a12.6 12.6 0 0 1 4.032-4.368q2.688-1.68 5.376-2.688t4.872-1.344q2.184-.504 2.52-.504 4.2-.336 7.56-.168 3.528.168 7.728 1.512 2.688 1.008 5.544 2.856a22.2 22.2 0 0 1 5.04 4.032q2.184 2.352 2.856 5.208.84 2.688-.672 5.712-2.352 4.2-5.208 4.2-2.856-.168-6.216-1.008-1.848-.336-4.368-1.512t-4.368-1.512q-5.712-.84-10.08.84t-7.56 4.032a32.2 32.2 0 0 0-6.384 6.552v24.192q0 4.536-.168 9.408 0 4.872-1.344 8.904-1.176 3.864-4.2 6.384-2.856 2.352-8.4 2.016-3.024-.168-5.376-2.856-2.352-2.856-2.856-5.544-.336-2.52-.504-6.048a1794 1794 0 0 1-.336-7.392V95.528m96.317-16.464a47 47 0 0 1 11.592-3.864q6.048-1.176 11.928-.504a38 38 0 0 1 11.592 3.192q5.712 2.52 10.416 7.056 3.864 3.864 6.72 9.408 2.856 5.376 4.2 10.584 2.856 9.24.84 18.648t-6.888 17.472q-2.352 3.696-5.88 6.72a33.3 33.3 0 0 1-7.224 4.704q-5.04 2.352-10.92 3.192-5.88 1.008-11.424.504-10.08-.504-17.808-5.04-7.56-4.536-12.264-11.592-4.536-7.056-6.048-15.96-1.344-9.072 1.176-18.48 2.688-10.08 7.728-16.296 5.208-6.384 12.264-9.744m5.04 22.512q-2.52 2.352-3.864 5.88a27.3 27.3 0 0 0-1.68 7.392q-.336 3.696.504 7.56 1.008 3.696 3.024 6.72 1.68 2.52 6.048 4.2a31.4 31.4 0 0 0 9.072 2.016q5.376.336 9.408-2.856a21 21 0 0 0 6.048-8.232q2.184-4.872 2.016-10.584t-3.024-10.416q-2.016-3.36-5.712-4.872-3.528-1.68-7.56-1.68-3.864-.168-7.728 1.176-3.864 1.176-6.552 3.696"/></svg>